# xmcd
#
# Track frame offsets: 
#        150
#        15646
#        32971
#        61798
#        83298
#        101535
#        122137
#        142468
#        157012
#        177771
#
# Disc length: 2678 seconds
#
# Revision: 0
# Processed by: cddbd v1.5.2PL0 Copyright (c) Steve Scherf et al.
# Submitted via: ExactAudioCopy v0.99pb5
#
DISCID=7e0a740a
DTITLE=The Choir - The Loudest Sound Ever Heard
DYEAR=2012
DGENRE=Christian Rock
TTITLE0=Strange Girl
TTITLE1=I'm Learning To Fly
TTITLE2=Cross That River
TTITLE3=Laughter Of Heaven
TTITLE4=O How
TTITLE5=The Forest
TTITLE6=Takin' The Universe In
TTITLE7=Melodious
TTITLE8=A World Away
TTITLE9=After All (feat. Leigh Nash)
EXTD=
EXTT0=
EXTT1=
EXTT2=
EXTT3=
EXTT4=
EXTT5=
EXTT6=
EXTT7=
EXTT8=
EXTT9=
PLAYORDER=
